<svg width="100" height="100" viewBox="0 0 100 100" fill="none" xmlns="http://www.w3.org/2000/svg">
<path d="M56.5421 45.9813C62.1495 55.4206 67.1028 65.6075 73.9252 74.2056C77.757 79.1589 80.9346 84.1121 87.1963 85.7009C84.9533 95.1402 80.4673 98.1308 73.4579 98.1308C69.1589 98.1308 63.0841 95.4206 59.9065 91.4019C50.6542 78.972 43.4579 65.8878 35.6075 51.4953V98.2243H27.4766C17.757 98.2243 12.6168 92.9907 12.6168 84.0187V2.14953H20.0935C29.8131 2.14953 35.8879 7.1028 35.8879 16.1682V42.1495C42.5234 30.5607 49.5327 19.8131 57.4766 8.97196C61.4953 3.36449 65.1402 1.96262 71.6822 1.96262H87.4766C87.3832 2.14953 64.3925 33.0841 56.5421 45.9813Z" fill="black"/>
</svg>
