<?xml version="1.0" encoding="utf-8"?>
<!-- Generator: Adobe Illustrator 27.1.1, SVG Export Plug-In . SVG Version: 6.00 Build 0)  -->
<svg version="1.1" id="Layer_1" xmlns="http://www.w3.org/2000/svg" xmlns:xlink="http://www.w3.org/1999/xlink" x="0px" y="0px"
	 viewBox="0 0 107 107" style="enable-background:new 0 0 107 107;" xml:space="preserve">
<path id="K_Icon_00000071530899854954010540000007228923570965382844_" d="M60.5,49.2c6,10.1,11.3,21,18.6,30.2
	c4.1,5.3,7.5,10.6,14.2,12.3c-2.4,10.1-7.2,13.3-14.7,13.3c-4.6,0-11.1-2.9-14.5-7.2c-9.9-13.3-17.6-27.3-26-42.7v50h-8.7
	c-10.4,0-15.9-5.6-15.9-15.2V2.3h8c10.4,0,16.9,5.3,16.9,15v27.8C45.5,32.7,53,21.2,61.5,9.6c4.3-6,8.2-7.5,15.2-7.5h16.9
	C93.5,2.3,68.9,35.4,60.5,49.2z"/>
</svg>
